<svg id="Layer_1" data-name="Layer 1" xmlns="http://www.w3.org/2000/svg" viewBox="0 0 1024 1024"><defs><style>.cls-1{fill:#fff;}</style></defs><path class="cls-1" d="M439.41,398l-4.07,7.52a2.55,2.55,0,0,1-2.23,1.32H23a2.54,2.54,0,0,1-2.49-2.05l-2-10.33a2.59,2.59,0,0,1,0-.48V360.46a2.44,2.44,0,0,1,.13-.8l1.73-5.21a2.55,2.55,0,0,1,2.4-1.73H432.77A2.54,2.54,0,0,1,435,354l4.83,8.14a2.54,2.54,0,0,0,2.18,1.24h0a2.53,2.53,0,0,1,2.53,2.53v28.29a2.53,2.53,0,0,1-2.49,2.53h-.41A2.52,2.52,0,0,0,439.41,398Z"/><rect class="cls-1" x="446.68" y="367.51" width="1.53" height="26.05" rx="0.71"/><rect class="cls-1" x="444.59" y="397.74" width="4.68" height="11.6" rx="2.19"/><path class="cls-1" d="M452.57,353.22l-1.85,1.86a1.66,1.66,0,0,0-.5,1.19c0,6.53-.19,56.77,0,56.77a26.23,26.23,0,0,1,2.55,2.52,1.72,1.72,0,0,0,1.24.53h31.82a1.71,1.71,0,0,0,1.71-1.7V402.9a1.7,1.7,0,0,1,1.7-1.7h15.39a1.71,1.71,0,0,0,1.7-1.71h0a1.7,1.7,0,0,1,.5-1.2l1-1a1.7,1.7,0,0,1,1.21-.5h35.72a1.71,1.71,0,0,0,1.7-1.71v-2.81a1.71,1.71,0,0,0-1.7-1.71h-37.2a1.71,1.71,0,0,1-1.71-1.7V354.43a1.71,1.71,0,0,0-1.7-1.71H485.73a1.7,1.7,0,0,1-1.2-.5l-2.7-2.7a1.71,1.71,0,0,0-1.21-.49H465.7a1.71,1.71,0,0,0-1.71,1.7V351a1.7,1.7,0,0,1-1.7,1.7h-8.51A1.7,1.7,0,0,0,452.57,353.22Z"/><path class="cls-1" d="M864.09,352l-353.55-.22a1.79,1.79,0,0,0-1.79,1.78v32.62a1.78,1.78,0,0,0,1.78,1.78H547.1a1.77,1.77,0,0,1,1.78,1.78v13.36a1.78,1.78,0,0,0,1.78,1.78H947A1.78,1.78,0,0,0,948.4,402l-35.51-49.55a1.79,1.79,0,0,0-1.45-.74H901.16a1.78,1.78,0,0,1-1.26-.52l-4.06-4.06a1.78,1.78,0,0,0-1.26-.52H873.35"/><path class="cls-1" d="M922.81,360.65l31.45,42.73a2.12,2.12,0,0,0,1.72.87h22.45a2.16,2.16,0,0,1,1.52.63l2.13,2.13a2.14,2.14,0,0,0,3,0l13.43-13.43a2.13,2.13,0,0,0,.62-1.51v-30.8a2.14,2.14,0,0,0-.62-1.51L996.79,358a2.14,2.14,0,0,0-1.51-.62l-70.75-.15A2.14,2.14,0,0,0,922.81,360.65Z"/><path class="cls-1" d="M903.51,669.38c14.78-8.86,81.87-50.32,98.8-60.79a2.14,2.14,0,0,1,3.24,2.13l-5.66,39.16a2.12,2.12,0,0,1-1.52,1.74L911,677.27a2.17,2.17,0,0,1-1.82-.29l-5.77-4A2.13,2.13,0,0,1,903.51,669.38Z"/><path class="cls-1" d="M714.56,462.22h28.19a2,2,0,0,1,2,2v17.43a2,2,0,0,1-2,2H714.56a2,2,0,0,1-2-2V464.26A2,2,0,0,1,714.56,462.22Z"/><path class="cls-1" d="M802.81,451.26l3.3,3.72a1,1,0,0,1,.24.94l-6.89,30.66a1.08,1.08,0,0,1-.89.82l-2.38.35v1l4.34.68a1.06,1.06,0,0,0,1.14-.61l15.08-33a1,1,0,0,0,.1-.44v-4.81a1.06,1.06,0,0,0-1.07-1.06H803.61A1.06,1.06,0,0,0,802.81,451.26Z"/><path class="cls-1" d="M491.27,414.28v9.52a2,2,0,0,0,2.13,1.92H608.47a2,2,0,0,0,2.13-1.92v-9.52a2,2,0,0,0-2.13-1.92H493.4A2,2,0,0,0,491.27,414.28Z"/><path class="cls-1" d="M491.27,408.68h0c0,.51.59.92,1.32.92H609.28c.73,0,1.32-.41,1.32-.92h0c0-.5-.59-.91-1.32-.91H492.59C491.86,407.77,491.27,408.18,491.27,408.68Z"/><path class="cls-1" d="M492.33,403.65H508a1,1,0,0,0,1.06-.94v-2.17a1,1,0,0,1,1.06-.94h35.07a1,1,0,0,1,1.06.94v4a1,1,0,0,1-1.06.93H492.33a1,1,0,0,1-1.06-.93h0A1,1,0,0,1,492.33,403.65Z"/><path class="cls-1" d="M874.65,449.37l69.77-.12a3,3,0,0,0,2.88-2c3.25-10.14,15.23-12.33,17-12.6a3.25,3.25,0,0,1,.44,0h16.51c2.22,0,3.94-2.92,4.61-4.26a2.88,2.88,0,0,0,.31-1.32v-7.39a2.92,2.92,0,0,0-.74-1.95L975.4,408.24H616.94a2.92,2.92,0,0,0-2.09.87l-.22.21a3,3,0,0,0-.86,2.09v15.37h0l-1.42,1.42a3,3,0,0,1-2.09.86h-118a2.68,2.68,0,0,1-2.69-2.69V421a3,3,0,0,0-.87-2.09h0a3,3,0,0,0-2.09-.86H454.16a3,3,0,0,0-2.09.86l-.16.17a2.94,2.94,0,0,0-.87,2.1l.18,43.53a2.94,2.94,0,0,0,.86,2.08l1.62,1.62a2.94,2.94,0,0,0,2.08.86l179.62.81h0l54.51,51.6a3,3,0,0,0,2,.81l85.68-.2h0l11-13.33h49a3,3,0,0,0,2.58-1.51l31.91-56.59A3,3,0,0,1,874.65,449.37ZM757.11,494.62v-5.7a3,3,0,0,0-3-2.95H712.64a3,3,0,0,1-2.95-3V462.77a3,3,0,0,1,2.95-3h39.79a3,3,0,0,0,3-2.95V450a3,3,0,0,1,3-3H822a3,3,0,0,1,2.95,3v44.67a3,3,0,0,1-2.95,2.95h-61.9A3,3,0,0,1,757.11,494.62Z"/><path class="cls-1" d="M949.31,484.65l-2.51-28.43a3,3,0,0,0-2.95-2.7l-66.7.12a3,3,0,0,0-2.57,1.5l-31.36,55.6a2.93,2.93,0,0,0-.18,2.5l58.07,152.65h0l102-62.53h0L949.56,485.61A2.68,2.68,0,0,1,949.31,484.65Z"/></svg>